<?xml version="1.0" encoding="UTF-8"?>
<svg version="1.1" xmlns="http://www.w3.org/2000/svg" width="512" height="512">
<path d="M0 0 C0.99702942 0.00304138 1.99405884 0.00608276 3.02130127 0.00921631 C19.42648708 0.08285849 35.27597428 1.0474167 51.375 4.4375 C52.40625 4.65180664 53.4375 4.86611328 54.5 5.08691406 C97.20275009 14.25466072 138.51225975 34.34491199 170.375 64.4375 C171.64161866 65.52575807 172.91240846 66.60918185 174.1875 67.6875 C183.82135709 76.11224952 192.51851943 85.34036251 200.375 95.4375 C201.15101563 96.3965625 201.92703125 97.355625 202.7265625 98.34375 C230.43605338 133.17853853 247.0476883 174.78398082 254.375 218.4375 C254.50777344 219.20819824 254.64054687 219.97889648 254.77734375 220.77294922 C260.20812839 254.03650515 256.87691196 290.07793382 248.375 322.4375 C248.05257324 323.67910889 248.05257324 323.67910889 247.72363281 324.94580078 C234.39463981 375.22339993 203.630765 423.42598452 162.375 455.4375 C161.0973871 456.45539143 159.82006332 457.47364582 158.54296875 458.4921875 C148.62363292 466.32557277 138.37136606 473.20915106 127.375 479.4375 C126.15321045 480.12972656 126.15321045 480.12972656 124.90673828 480.8359375 C86.87174983 502.11260865 44.33775429 512.95257211 0.8125 512.75 C-0.42066452 512.74726578 -0.42066452 512.74726578 -1.67874146 512.74447632 C-15.82867608 512.69200649 -29.66220164 511.86856643 -43.625 509.4375 C-45.00655273 509.20401855 -45.00655273 509.20401855 -46.41601562 508.96582031 C-105.73671296 498.55248136 -162.4621489 464.95933398 -199.625 417.4375 C-200.42679688 416.42945313 -201.22859375 415.42140625 -202.0546875 414.3828125 C-225.5726715 384.58600091 -242.22435641 349.9206556 -250.4375 312.8125 C-250.71146606 311.58321777 -250.71146606 311.58321777 -250.9909668 310.32910156 C-254.6902571 292.4426485 -256.15143893 274.73700511 -256 256.5 C-255.99534729 255.4945816 -255.99069458 254.48916321 -255.98590088 253.45327759 C-255.90729258 238.94601589 -255.60904929 224.68479372 -252.625 210.4375 C-252.42632324 209.46264648 -252.22764648 208.48779297 -252.02294922 207.48339844 C-243.8359893 168.34543722 -228.15219655 132.10041786 -203.625 100.4375 C-202.93921875 99.53902344 -202.2534375 98.64054687 -201.546875 97.71484375 C-196.27692525 90.95602608 -190.53345326 84.63812952 -184.625 78.4375 C-184.05330078 77.83711914 -183.48160156 77.23673828 -182.89257812 76.61816406 C-174.8843274 68.26941183 -166.66011118 60.62413949 -157.36230469 53.73486328 C-155.64124144 52.44962858 -153.948612 51.1332984 -152.2578125 49.80859375 C-121.2533902 25.8623735 -83.21715529 9.81214587 -44.625 3.4375 C-43.87504761 3.31361908 -43.12509521 3.18973816 -42.35241699 3.06210327 C-28.1890162 0.78072372 -14.33540969 -0.09365219 0 0 Z M-28.4375 40.625 C-29.78992798 40.82464355 -29.78992798 40.82464355 -31.16967773 41.02832031 C-68.61144239 46.83505769 -103.94062204 61.78588257 -133.625 85.4375 C-134.61371094 86.22125 -135.60242188 87.005 -136.62109375 87.8125 C-151.63663445 99.98169471 -165.04556132 113.84418747 -176.28369141 129.56787109 C-177.20217045 130.84812455 -178.13770927 132.11626202 -179.08740234 133.37353516 C-181.93081483 137.00144742 -181.93081483 137.00144742 -182.625 141.4375 C-181.67753906 141.9636792 -181.67753906 141.9636792 -180.7109375 142.50048828 C-168.86996342 149.08425755 -157.06586328 155.71503556 -145.375 162.5625 C-144.39829346 163.13387695 -143.42158691 163.70525391 -142.4152832 164.29394531 C-140.46315851 165.43609941 -138.51109087 166.57835104 -136.55908203 167.72070312 C-135.59083496 168.28724609 -134.62258789 168.85378906 -133.625 169.4375 C-132.62194824 170.02466797 -131.61889648 170.61183594 -130.58544922 171.21679688 C-127.66504711 172.92220994 -124.73954046 174.61851213 -121.8125 176.3125 C-120.92852539 176.83086426 -120.04455078 177.34922852 -119.13378906 177.88330078 C-117.91320801 178.58688721 -117.91320801 178.58688721 -116.66796875 179.3046875 C-115.95664795 179.71831543 -115.24532715 180.13194336 -114.51245117 180.55810547 C-112.51882155 181.64866348 -112.51882155 181.64866348 -109.625 181.4375 C-107.85273247 179.38626167 -107.85273247 179.38626167 -106.125 176.6875 C-86.38531788 148.69304171 -55.64514892 131.48548374 -22.35546875 125.015625 C-17.80285984 124.3100898 -13.20909085 123.89590909 -8.625 123.4375 C-8.625 95.7175 -8.625 67.9975 -8.625 39.4375 C-15.48275013 39.4375 -21.73145879 39.6303642 -28.4375 40.625 Z M9.375 40.4375 C9.375 67.8275 9.375 95.2175 9.375 123.4375 C15.975 124.4275 22.575 125.4175 29.375 126.4375 C32.88310876 127.24816726 36.16480972 128.03792156 39.5625 129.125 C40.78682739 129.50736816 40.78682739 129.50736816 42.03588867 129.89746094 C69.37226475 138.7684687 95.17412776 156.75843683 110.375 181.4375 C114.35010033 180.84836447 117.18197025 179.61704805 120.63671875 177.5859375 C122.17223389 176.69092529 122.17223389 176.69092529 123.73876953 175.77783203 C124.83560059 175.12927246 125.93243164 174.48071289 127.0625 173.8125 C128.21684149 173.13709922 129.37163464 172.46246985 130.52685547 171.78857422 C132.93391837 170.38356398 135.33898964 168.97523205 137.74267578 167.56445312 C143.47831873 164.20144546 149.23978599 160.88320377 155 157.5625 C156.61660522 156.62917847 156.61660522 156.62917847 158.26586914 155.67700195 C166.6015007 150.86914365 174.96979855 146.12257453 183.375 141.4375 C181.88888823 137.1469515 179.64380529 133.6496958 177 130 C176.33907349 129.08528931 176.33907349 129.08528931 175.66479492 128.15209961 C163.35781875 111.37455782 148.84629937 96.07421755 132.09130859 83.70507812 C130.38932411 82.44807906 128.70455002 81.1702368 127.01953125 79.890625 C117.98633874 73.13401643 108.37492929 67.63249486 98.375 62.4375 C97.69099121 62.07914063 97.00698242 61.72078125 96.30224609 61.3515625 C69.22236515 47.34767753 39.71894344 40.4375 9.375 40.4375 Z M-192.625 155.4375 C-206.53483887 184.27657491 -216.625 215.16368066 -216.625 247.4375 C-188.905 247.4375 -161.185 247.4375 -132.625 247.4375 C-131.635 240.5075 -130.645 233.5775 -129.625 226.4375 C-127.23609299 217.25906781 -124.74688876 208.91392196 -120.54296875 200.44140625 C-119.48617612 198.50180988 -119.48617612 198.50180988 -119.625 196.4375 C-120.1418335 196.15664551 -120.65866699 195.87579102 -121.19116211 195.58642578 C-130.79136132 190.36074597 -140.34850139 185.08547881 -149.74560547 179.50170898 C-157.63074513 174.82099484 -165.58650788 170.26275032 -173.54150391 165.70214844 C-178.17328701 163.03952438 -182.77821546 160.37051948 -187.27734375 157.48828125 C-190.2549258 155.26337487 -190.2549258 155.26337487 -192.625 155.4375 Z M186.94140625 157.97265625 C185.99563721 158.52711426 185.04986816 159.08157227 184.07543945 159.65283203 C183.03991943 160.26239746 182.00439941 160.87196289 180.9375 161.5 C178.73468758 162.79089812 176.53155152 164.0812441 174.328125 165.37109375 C173.75717606 165.7055249 173.18622711 166.03995605 172.59797668 166.38452148 C166.47551898 169.96872309 160.33349914 173.518836 154.1875 177.0625 C152.57911255 177.9898999 152.57911255 177.9898999 150.93823242 178.93603516 C140.76559989 184.79629745 130.57464199 190.62439434 120.375 196.4375 C121.88431097 201.04006917 123.43050778 205.62241833 125.09375 210.171875 C125.68765199 211.84369602 126.28140059 213.51557153 126.875 215.1875 C127.17019531 215.97253906 127.46539062 216.75757813 127.76953125 217.56640625 C131.25297461 227.55636935 131.80150984 236.42306888 133.375 247.4375 C161.095 247.4375 188.815 247.4375 217.375 247.4375 C215.36900805 215.34162879 208.92180678 183.49112041 192.375 155.4375 C190.40752675 155.4375 188.57789779 157.00996771 186.94140625 157.97265625 Z M37.375 173.4375 C35.62155997 175.91188314 35.62155997 175.91188314 34.17578125 178.69921875 C33.61109131 179.72797119 33.04640137 180.75672363 32.46459961 181.81665039 C31.87815674 182.90840576 31.29171387 184.00016113 30.6875 185.125 C29.44672628 187.38879629 28.20453226 189.65181469 26.9609375 191.9140625 C26.3534668 193.02426758 25.74599609 194.13447266 25.12011719 195.27832031 C22.75433297 199.5610914 20.3038576 203.78932976 17.8125 208 C17.43198486 208.64606201 17.05146973 209.29212402 16.65942383 209.95776367 C15.93979434 211.1727868 15.21199014 212.3830149 14.47509766 213.58764648 C13.68037879 214.92399466 12.92997389 216.28703604 12.20849609 217.66430664 C11.05151238 219.76785026 9.9542605 221.62849763 8.375 223.4375 C5.359375 224.11328125 5.359375 224.11328125 2.125 223.75 C-7.7603067 223.15999859 -15.01654402 226.07860796 -22.625 232.4375 C-29.7790529 239.67473956 -32.7284278 247.26151831 -32.875 257.375 C-32.82201535 260.44369412 -32.60376588 262.50120235 -31.625 265.4375 C-92.345 265.4375 -153.065 265.4375 -215.625 265.4375 C-215.62893713 278.98693443 -215.62893713 278.98693443 -214.125 292.25 C-213.95049316 293.30622559 -213.77598633 294.36245117 -213.59619141 295.45068359 C-205.7942308 339.35532664 -183.8820658 377.3316418 -153.625 409.4375 C-152.93535156 410.1696875 -152.24570313 410.901875 -151.53515625 411.65625 C-113.64255055 450.71120556 -57.31289642 472.62045776 -3.53881836 473.85668945 C56.78650674 474.19905793 112.7222698 450.05709709 155.75 408.3125 C160.29023705 403.63468001 164.31079181 398.52672013 168.375 393.4375 C169.03371094 392.64601563 169.69242187 391.85453125 170.37109375 391.0390625 C191.40174105 365.5653207 205.44811461 334.64575897 212.375 302.4375 C212.65988281 301.19484375 212.94476563 299.9521875 213.23828125 298.671875 C215.823305 287.15565547 216.375 277.49483518 216.375 265.4375 C155.325 265.4375 94.275 265.4375 31.375 265.4375 C31.705 264.7775 32.035 264.1175 32.375 263.4375 C33.1754543 253.64908747 33.02841174 245.8490914 27.375 237.4375 C26.715 236.4475 26.055 235.4575 25.375 234.4375 C24.715 234.4375 24.055 234.4375 23.375 234.4375 C25.38677905 230.90408156 27.40062906 227.37185054 29.41552734 223.84020996 C30.50135852 221.93511648 31.58474451 220.02864703 32.66796875 218.12207031 C36.2244856 211.87378386 39.82024278 205.65956123 43.5546875 199.515625 C44.19905762 198.44634766 44.84342773 197.37707031 45.50732422 196.27539062 C46.72626971 194.26006741 47.95910269 192.2530602 49.20751953 190.25585938 C52.57054151 184.66625096 54.26480046 180.98966704 53.375 174.4375 C51.23898066 171.10530982 49.7422811 170.54434541 45.9375 169.4375 C41.50188591 169.4375 40.5509415 170.45185834 37.375 173.4375 Z " fill="#FDBE19" transform="translate(255.625,-0.4375)"/>
<path d="M0 0 C61.05 0 122.1 0 185 0 C186.65 3.3 188.3 6.6 190 10 C195.33755895 16.3207935 202.24855783 21.56109127 210.63671875 22.3359375 C220.93654109 22.56783557 228.89374429 21.47171499 237.25 14.9375 C242.00626601 10.28335582 242.00626601 10.28335582 247 0 C308.05 0 369.1 0 432 0 C432 9.4247148 431.78057543 17.0353688 430 26 C429.76196451 27.41496986 429.5264742 28.83036927 429.29296875 30.24609375 C420.58112903 80.7170351 392.25053002 128.29069651 352 160 C351.48920898 160.40895508 350.97841797 160.81791016 350.45214844 161.23925781 C342.66666492 167.47052281 334.70401044 173.09542514 326 178 C325.20368164 178.45133301 324.40736328 178.90266602 323.58691406 179.36767578 C308.91484813 187.58782954 293.99015271 193.82362575 278 199 C277.27425781 199.23686523 276.54851562 199.47373047 275.80078125 199.71777344 C223.61033732 216.47058835 165.00870066 208.69963227 116.71777344 184.05737305 C95.92656706 173.16636668 77.67814343 159.50603597 61 143 C60.39969971 142.41726318 59.79939941 141.83452637 59.1809082 141.23413086 C55.37645375 137.50699224 51.93454657 133.65688486 48.6875 129.4375 C47.98765991 128.53414917 47.98765991 128.53414917 47.27368164 127.61254883 C45.83932253 125.74892366 44.41703314 123.87682572 43 122 C42.56751953 121.42830078 42.13503906 120.85660156 41.68945312 120.26757812 C20.31105728 91.7740305 6.16458479 58.28863954 1 23 C0.8040625 21.79730469 0.608125 20.59460938 0.40625 19.35546875 C-0.19306556 12.93011448 0 6.45324388 0 0 Z M76 58 C75.22847014 62.32056721 75.47252134 64.19119939 77.875 67.875 C80.8312902 70.8312902 82.34575472 71.12523819 86.39917374 71.13422108 C87.32952226 71.13867892 88.25987078 71.14313676 89.21841168 71.14772969 C90.76185887 71.14745315 90.76185887 71.14745315 92.33648682 71.14717102 C93.42427075 71.15084771 94.51205469 71.1545244 95.63280177 71.1583125 C99.30240638 71.16938496 102.97198272 71.1731992 106.64160156 71.17700195 C109.26267081 71.18326388 111.88373915 71.18991043 114.50480652 71.19691467 C122.3883814 71.21668952 130.27195759 71.22674674 138.15555108 71.23564246 C141.86660796 71.24002383 145.57766342 71.24539105 149.28871918 71.25063133 C161.62275013 71.2676449 173.95678019 71.28213942 186.29082108 71.28938007 C189.49254609 71.29129002 192.6942711 71.29321034 195.89599609 71.29516602 C196.69178537 71.29564976 197.48757465 71.2961335 198.30747876 71.2966319 C211.20082964 71.30493347 224.09408779 71.33027193 236.98739818 71.36274669 C250.21993755 71.39580457 263.45242978 71.41382769 276.68501067 71.41702431 C284.11654518 71.41919064 291.54794447 71.42795695 298.97943878 71.45348549 C305.96928252 71.47744115 312.95887899 71.48102614 319.94875526 71.47072411 C322.51666129 71.47022703 325.08457904 71.47659781 327.65244865 71.49028015 C331.15378694 71.50789487 334.65424071 71.50094338 338.15557861 71.48774719 C339.68564147 71.50420106 339.68564147 71.50420106 341.24661469 71.52098733 C347.12921554 71.46733186 350.52292826 70.93223653 355 67 C356.42662219 64.14675563 356.31033868 62.16545451 356 59 C354.20006226 56.30009338 352.916227 54.4581135 350 53 C348.53092015 52.902593 347.05750838 52.86722135 345.58520889 52.86298561 C344.65137697 52.85791107 343.71754506 52.85283653 342.7554152 52.84760821 C341.72255946 52.84711045 340.68970372 52.84661269 339.62554932 52.84609985 C338.53368183 52.8417176 337.44181434 52.83733535 336.31685996 52.8328203 C332.63343881 52.81939359 328.95004161 52.81324477 325.26660156 52.80712891 C322.63568004 52.79923104 320.00475961 52.79096229 317.37384033 52.78234863 C309.46060685 52.75781296 301.54736706 52.74319578 293.63410723 52.73028857 C291.39964706 52.72657748 289.16518751 52.72260418 286.93072796 52.7185359 C273.05983409 52.69330026 259.18893926 52.67124362 245.3180275 52.65880775 C242.1042709 52.65587798 238.89051433 52.65291633 235.67675781 52.64990234 C234.47858797 52.64878327 234.47858797 52.64878327 233.25621268 52.64764158 C220.31434008 52.63498599 207.37260481 52.60176095 194.43079641 52.56010051 C181.14853744 52.51769408 167.86634879 52.49411422 154.58402228 52.48888719 C147.12450685 52.48547159 139.66520601 52.47369915 132.20575714 52.44078445 C125.85326346 52.4128004 119.50102836 52.40177723 113.14847782 52.41297992 C109.90705728 52.41817102 106.66629255 52.41253227 103.42492676 52.39051437 C99.91029089 52.36793653 96.39702667 52.37606652 92.88238525 52.39199829 C91.8584524 52.3781162 90.83451954 52.36423412 89.77955842 52.34993136 C83.4471896 52.42082838 80.2545223 53.16501535 76 58 Z M121 97 C120.16666667 100.5 120.16666667 100.5 121 104 C123.6417746 107.40838863 125.12355547 108.83839409 129.41239929 109.6292057 C130.72867813 109.63109083 132.04495697 109.63297596 133.40112305 109.63491821 C134.13690677 109.64271817 134.87269049 109.65051812 135.63077068 109.65855443 C138.09159893 109.67846828 140.55087956 109.66271371 143.01171875 109.64697266 C144.77772931 109.6537491 146.5437328 109.66265238 148.3097229 109.67352295 C153.10317429 109.69631979 157.89608768 109.68747839 162.68954849 109.67162752 C167.70540062 109.65897054 172.72120662 109.67070808 177.73706055 109.67855835 C186.16040316 109.68765549 194.5835266 109.67566527 203.00683594 109.65185547 C212.74601779 109.62464409 222.48467631 109.63345821 232.22384548 109.6609875 C240.58493499 109.68367569 248.94586693 109.68688006 257.30697727 109.67379415 C262.30104209 109.66599806 267.29486089 109.66496243 272.28890991 109.68147659 C276.98407876 109.69591786 281.67857275 109.68590601 286.37366867 109.65700531 C288.09699762 109.65039264 289.82038335 109.6522953 291.54368973 109.66331863 C293.89618598 109.67697955 296.2465187 109.65985528 298.59887695 109.63491821 C300.57329521 109.63209052 300.57329521 109.63209052 302.58760071 109.6292057 C306.8774961 108.83820019 308.36259552 107.41413436 311 104 C311.75011367 100.45728358 311.75011367 100.45728358 311 97 C309.13291495 94.63502561 307.67938569 93.33969285 305 92 C302.66769148 91.89445245 300.33227885 91.85601813 297.99760437 91.84609985 C296.90389903 91.83952647 296.90389903 91.83952647 295.78809863 91.8328203 C293.3322813 91.81941074 290.87649986 91.81324864 288.4206543 91.80712891 C286.66494585 91.79922969 284.90923903 91.79096086 283.15353394 91.78234863 C277.37711136 91.75610957 271.60068146 91.74082002 265.82421875 91.7265625 C263.83759875 91.72120377 261.8509788 91.71582626 259.8643589 91.71043015 C251.60247648 91.68879946 243.34059602 91.67006154 235.07869244 91.65880775 C223.22799168 91.64256072 211.37761841 91.6093668 199.52704114 91.55240691 C191.20002758 91.51374384 182.87310176 91.49417943 174.54600078 91.48888719 C169.56971514 91.485229 164.59377863 91.47315806 159.61758995 91.44078445 C154.93650134 91.41076739 150.25597427 91.40436915 145.57481003 91.41616821 C143.85628863 91.41638948 142.13774165 91.40804082 140.41930962 91.39051437 C138.07330918 91.36788879 135.72935644 91.37608463 133.38334656 91.39199829 C132.07054561 91.38868814 130.75774466 91.385378 129.40516186 91.38196754 C125.11558407 92.16052034 123.64028688 93.59321457 121 97 Z " fill="#114DE1" transform="translate(40,265)"/>
<path d="M0 0 C0 27.72 0 55.44 0 84 C-6.93 84.99 -13.86 85.98 -21 87 C-52.71058951 95.58331746 -81.00453087 112.80563181 -100 140 C-100.33 140.66 -100.66 141.32 -101 142 C-104.97510033 141.41086447 -107.80697025 140.17954805 -111.26171875 138.1484375 C-112.28539551 137.5517627 -113.30907227 136.95508789 -114.36376953 136.34033203 C-115.46060059 135.69177246 -116.55743164 135.04321289 -117.6875 134.375 C-118.84184149 133.69959922 -119.99663464 133.02496985 -121.15185547 132.35107422 C-123.55891837 130.94606398 -125.96398964 129.53773205 -128.36767578 128.12695312 C-134.10331873 124.76394546 -139.86478599 121.44570377 -145.625 118.125 C-146.70273682 117.50278564 -147.78047363 116.88057129 -148.89086914 116.23950195 C-157.2265007 111.43164365 -165.59479855 106.68507453 -174 102 C-173.41060576 97.84375444 -171.03622925 94.86428144 -168.625 91.5625 C-168.17511719 90.94342773 -167.72523438 90.32435547 -167.26171875 89.68652344 C-154.00498148 71.66507242 -138.25867136 55.00216533 -120 42 C-119.35724121 41.53464844 -118.71448242 41.06929687 -118.05224609 40.58984375 C-84.02601799 16.1632622 -42.21636752 0 0 0 Z " fill="#114DE1" transform="translate(247,39)"/>
<path d="M0 0 C18.67117381 0 18.67117381 0 25.0625 1.125 C25.83867676 1.25624268 26.61485352 1.38748535 27.41455078 1.52270508 C61.41895798 7.60427544 93.56439434 20.87124752 121 42 C121.93585938 42.70640625 122.87171875 43.4128125 123.8359375 44.140625 C130.57012416 49.3665238 136.81554033 55.14402638 143 61 C143.93070313 61.8765625 144.86140625 62.753125 145.8203125 63.65625 C156.6110375 74.10880413 166.07039258 86.23431101 174 99 C174 99.66 174 100.32 174 101 C173.36835938 101.35078613 172.73671875 101.70157227 172.0859375 102.06298828 C160.24496342 108.64675755 148.44086328 115.27753556 136.75 122.125 C135.77329346 122.69637695 134.79658691 123.26775391 133.7902832 123.85644531 C131.83815851 124.99859941 129.88609087 126.14085104 127.93408203 127.28320312 C126.48171143 128.13301758 126.48171143 128.13301758 125 129 C123.99694824 129.58716797 122.99389648 130.17433594 121.96044922 130.77929688 C119.04004711 132.48470994 116.11454046 134.18101213 113.1875 135.875 C111.86153809 136.65254639 111.86153809 136.65254639 110.50878906 137.44580078 C109.69506836 137.9148584 108.88134766 138.38391602 108.04296875 138.8671875 C106.97598755 139.48762939 106.97598755 139.48762939 105.88745117 140.12060547 C104 141 104 141 101 141 C99.34375 139.015625 99.34375 139.015625 97.5 136.25 C78.77447513 109.6938011 51.03921255 93.9815118 20 86 C13.4 85.01 6.8 84.02 0 83 C0 55.61 0 28.22 0 0 Z " fill="#114DE1" transform="translate(265,40)"/>
<path d="M0 0 C3.80962064 1.424206 7.24403968 3.17908883 10.76953125 5.203125 C11.89391602 5.84693115 13.01830078 6.4907373 14.17675781 7.15405273 C15.38873438 7.85259338 16.60064693 8.55124512 17.8125 9.25 C19.06726928 9.97033127 20.32215358 10.69046221 21.57714844 11.41040039 C30.64666738 16.61914883 39.68250486 21.88523372 48.70825195 27.16943359 C56.75340481 31.87401724 64.85434688 36.47197518 73 41 C71.71340771 44.99520765 70.43736864 48.94594157 68.828125 52.82421875 C66.1104435 59.37517323 64.20900445 65.75535662 62.75 72.6875 C62.58701416 73.45884277 62.42402832 74.23018555 62.25610352 75.02490234 C61.11919814 80.71728665 60.58340963 86.16590368 60 92 C32.28 92 4.56 92 -24 92 C-24 85.14224987 -23.8071358 78.89354121 -22.8125 72.1875 C-22.6794043 71.28588135 -22.54630859 70.3842627 -22.40917969 69.45532227 C-18.59964835 44.89151535 -10.55741184 22.41963184 0 0 Z " fill="#124DE1" transform="translate(63,155)"/>
<path d="M0 0 C3.69007618 3.36880089 5.24832463 7.37037427 7.25 11.875 C7.64477539 12.76340576 8.03955078 13.65181152 8.44628906 14.56713867 C19.03022217 38.88925614 26 65.35940115 26 92 C-1.72 92 -29.44 92 -58 92 C-58.99 85.07 -59.98 78.14 -61 71 C-62.24155236 66.53778708 -63.47287068 62.37130971 -65.0625 58.0625 C-65.41376953 57.06283203 -65.76503906 56.06316406 -66.12695312 55.03320312 C-66.78801751 53.15498049 -67.456137 51.27921675 -68.13330078 49.40673828 C-69.13687648 46.61990751 -70.0805158 43.81562259 -71 41 C-70.36835938 40.64921387 -69.73671875 40.29842773 -69.0859375 39.93701172 C-45.83045417 27.00659438 -22.88984891 13.56612321 0 0 Z " fill="#124DE0" transform="translate(447,155)"/>
<path d="M0 0 C1.09599075 -0.00709439 2.19198151 -0.01418877 3.3211841 -0.02149814 C6.99486951 -0.03910477 10.66750073 -0.02095838 14.34117126 -0.00291443 C16.9743341 -0.0080522 19.60742597 -0.0151435 22.24057007 -0.02459717 C28.65043397 -0.04296889 35.05999289 -0.03446505 41.46984727 -0.01650894 C46.67897034 -0.00248007 51.88801065 0.00140925 57.0971508 -0.00195122 C57.83869106 -0.00242866 58.58023132 -0.0029061 59.34424249 -0.00339801 C60.85068065 -0.00442435 62.35711879 -0.0054797 63.86355691 -0.00656378 C77.18167688 -0.01512973 90.49964962 0.00154136 103.81773376 0.03126526 C116.74129926 0.06010826 129.66465272 0.06718335 142.58824158 0.05177307 C156.66237695 0.03501384 170.73641168 0.03097338 184.81054968 0.04848343 C186.31112284 0.05032782 187.81169602 0.05216255 189.31226921 0.0539875 C190.41973131 0.05535564 190.41973131 0.05535564 191.54956638 0.05675141 C196.75307354 0.06235811 201.95653158 0.05904845 207.16003609 0.05244255 C214.1622902 0.04390598 221.16423301 0.05685969 228.16643715 0.08429146 C230.7395868 0.09119104 233.31276497 0.09125654 235.88591385 0.08407593 C239.39181618 0.07541812 242.89676545 0.09127657 246.40258789 0.11352539 C247.42670511 0.10528462 248.45082233 0.09704386 249.5059734 0.08855337 C253.91008774 0.14032504 256.42881846 0.19319753 260.24625301 2.53535557 C262.49927174 5.02812358 263.06787712 6.10375157 263.51280212 9.44068909 C263.01541458 13.66848323 261.34399136 14.95636473 258.13780212 17.62818909 C255.77750905 18.80833562 254.36829509 18.75658022 251.73583508 18.76241016 C250.80486985 18.76686801 249.87390463 18.77132585 248.91472834 18.77591878 C247.88508143 18.77573442 246.85543452 18.77555006 245.79458618 18.77536011 C244.70609668 18.7790368 243.61760718 18.78271348 242.49613315 18.78650159 C238.82419456 18.79757398 235.15228423 18.80138826 231.48033142 18.80519104 C228.85763966 18.81145293 226.23494879 18.81809948 223.61225891 18.82510376 C215.72423993 18.84487781 207.83621965 18.85493534 199.94818208 18.86383155 C196.235502 18.86821271 192.52282336 18.87357994 188.81014442 18.87882042 C176.47182225 18.89583326 164.13350098 18.91032825 151.79516888 18.91756916 C148.59240404 18.91947912 145.3896392 18.92139944 142.18687439 18.9233551 C140.99279701 18.92408071 140.99279701 18.92408071 139.77459685 18.92482098 C126.87410391 18.93312435 113.97370362 18.95846616 101.07325115 18.99093578 C87.83506654 19.02398441 74.59692905 19.04201591 61.35870296 19.0452134 C53.92328798 19.04738049 46.48800811 19.05615807 39.05263329 19.08167458 C32.06033035 19.10561485 25.06827459 19.10922107 18.07593918 19.09891319 C15.50600056 19.09841577 12.93605029 19.10479644 10.36614799 19.11846924 C6.86445927 19.13606079 3.36365702 19.1291441 -0.13803101 19.11593628 C-1.16098575 19.12690553 -2.1839405 19.13787477 -3.23789388 19.14917642 C-7.64203041 19.10892089 -10.15138627 19.06401428 -13.96995831 16.72270489 C-16.41058391 14.02118179 -16.81563394 12.98074464 -17.29969788 9.31568909 C-16.86219788 5.62818909 -16.86219788 5.62818909 -14.51374149 2.93698215 C-10.09283117 -0.46941564 -5.37225785 -0.06222275 0 0 Z " fill="#F6BA1F" transform="translate(132.86219787597656,317.37181091308594)"/>
<path d="M0 0 C3.94800307 0.96968496 5.37555013 1.4633582 7.5625 4.875 C8.76260194 12.93414612 5.11883986 18.03141113 1 24.75 C-0.01766272 26.45878684 -1.03529595 28.16759202 -2.05122375 29.87741089 C-3.11405047 31.66158867 -4.18413565 33.44126966 -5.25488281 35.22070312 C-8.53422578 40.68884677 -11.69876791 46.22336928 -14.87203979 51.753479 C-16.47149229 54.53871151 -18.07783152 57.31996446 -19.68359375 60.1015625 C-20.21654053 61.02533691 -20.7494873 61.94911133 -21.29858398 62.90087891 C-21.67442627 63.55233887 -22.05026855 64.20379883 -22.4375 64.875 C-21.7775 64.875 -21.1175 64.875 -20.4375 64.875 C-18.96484375 66.95703125 -18.96484375 66.95703125 -17.375 69.6875 C-16.84777344 70.58082031 -16.32054687 71.47414063 -15.77734375 72.39453125 C-11.98130931 79.42217518 -12.41732978 89.16132193 -14.0859375 96.87109375 C-17.37755052 105.88786276 -23.81823961 112.71842209 -32.4375 116.875 C-40.09657166 119.9407953 -49.55937494 120.3845988 -57.4921875 117.9296875 C-59.9654058 116.73442395 -62.18052577 115.43718866 -64.4375 113.875 C-65.30955078 113.29878906 -65.30955078 113.29878906 -66.19921875 112.7109375 C-72.3875629 108.12813352 -76.72481458 100.32319009 -78.4375 92.875 C-79.47013014 83.46816375 -77.93454874 74.93677666 -72.375 67.1875 C-67.21017018 61.04200629 -60.65469094 55.77743132 -52.69140625 54.0078125 C-50.4375 53.875 -50.4375 53.875 -47.40234375 54.3671875 C-43.63553237 54.86942902 -41.09534075 54.96258615 -37.4375 53.875 C-33.67527965 49.61927853 -31.38780858 44.80908442 -28.89355469 39.73535156 C-26.05322545 34.15565718 -22.83420831 28.78568172 -19.6875 23.375 C-19.06117676 22.27816895 -18.43485352 21.18133789 -17.78955078 20.05126953 C-6.18076279 -0.22475501 -6.18076279 -0.22475501 0 0 Z " fill="#0F3FB5" transform="translate(301.4375,169.125)"/>
<path d="M0 0 C0.73170017 -0.00638882 1.46340034 -0.01277764 2.21727324 -0.01936007 C4.66432953 -0.03459718 7.10976329 -0.0141592 9.5567627 0.00622559 C11.31291744 0.00272398 13.06906902 -0.00293505 14.82521057 -0.0105896 C19.59183769 -0.02484158 24.35788822 -0.00777204 29.12446022 0.01569557 C34.11226821 0.03579716 39.10005209 0.02992537 44.08789062 0.02758789 C52.46416742 0.02764147 60.84021869 0.04740286 69.21643066 0.07946777 C78.90098039 0.11636087 88.58523466 0.12514339 98.26984549 0.11817026 C107.58546025 0.11186535 116.90097368 0.12261935 126.21656799 0.14213562 C130.18137557 0.1503111 134.14613136 0.15301889 138.11094666 0.15144348 C142.77971972 0.15056463 147.44821195 0.16478083 152.11691093 0.19067001 C153.83056209 0.1978331 155.54424313 0.19991475 157.25790596 0.19655228 C159.59680269 0.19283834 161.93487944 0.20758121 164.27368164 0.22705078 C166.23703838 0.23264385 166.23703838 0.23264385 168.2400589 0.23834991 C171.86038121 0.64667223 173.75844724 1.43032172 176.63684082 3.62145996 C178.20619676 6.76017184 177.98885185 9.16001818 177.63684082 12.62145996 C175.01124462 16.0495887 173.51621399 17.45931404 169.22444153 18.25066566 C167.25002327 18.25349336 167.25002327 18.25349336 165.23571777 18.25637817 C164.49993405 18.26417813 163.76415033 18.27197808 163.00607014 18.2800144 C160.54524189 18.29992825 158.08596126 18.28417367 155.62512207 18.26843262 C153.85911151 18.27520906 152.09310802 18.28411234 150.32711792 18.29498291 C145.53366653 18.31777975 140.74075314 18.30893835 135.94729233 18.29308748 C130.9314402 18.2804305 125.9156342 18.29216804 120.89978027 18.30001831 C112.47643766 18.30911545 104.05331422 18.29712523 95.63000488 18.27331543 C85.89082303 18.24610405 76.15216451 18.25491817 66.41299534 18.28244746 C58.05190583 18.30513565 49.69097389 18.30834002 41.32986355 18.29525411 C36.33579873 18.28745802 31.34197993 18.28642239 26.34793091 18.30293655 C21.65276206 18.31737782 16.95826807 18.30736597 12.26317215 18.27846527 C10.5398432 18.2718526 8.81645747 18.27375526 7.09315109 18.28477859 C4.74065484 18.29843951 2.39032212 18.28131524 0.03796387 18.25637817 C-1.27831497 18.25449305 -2.59459381 18.25260792 -3.95075989 18.25066566 C-8.23960371 17.45985405 -9.72138458 16.02984859 -12.36315918 12.62145996 C-12.98815918 9.12145996 -12.98815918 9.12145996 -12.36315918 5.62145996 C-8.59219218 0.76022693 -6.05610999 -0.00329668 0 0 Z " fill="#FEBE18" transform="translate(173.3631591796875,356.3785400390625)"/>
</svg>
